<?xml version="1.0" encoding="utf-8"?>
<!-- Generator: Adobe Illustrator 23.1.0, SVG Export Plug-In . SVG Version: 6.00 Build 0)  -->
<svg version="1.1" id="Warstwa_1" xmlns="http://www.w3.org/2000/svg" xmlns:xlink="http://www.w3.org/1999/xlink" x="0px" y="0px"
	 viewBox="0 0 707.1 200" style="enable-background:new 0 0 707.1 200;" xml:space="preserve">
<style type="text/css">
	.st0{fill:#002B3F;}
	.st1{fill-rule:evenodd;clip-rule:evenodd;fill:#4BAB52;}
	.st2{fill:#FFFFFF;}
	.st3{fill:#606060;}
</style>
<path class="st0" d="M274,151.3l-7.4-24.3h-37.2l-7.4,24.3h-23.3l36-102.6h26.5l36.2,102.6H274z M261.4,108.8
	c-6.8-22-10.7-34.5-11.6-37.4c-0.9-2.9-1.5-5.2-1.9-6.8c-1.5,6-5.9,20.7-13.2,44.2H261.4z"/>
<path class="st0" d="M394.9,99.2c0,16.8-4.8,29.7-14.4,38.6c-9.6,8.9-23.4,13.4-41.5,13.4h-28.9V49.1h32.1
	c16.7,0,29.6,4.4,38.8,13.2C390.3,71.1,394.9,83.4,394.9,99.2z M372.4,99.8c0-21.9-9.7-32.9-29.1-32.9h-11.5v66.5h9.3
	C362,133.4,372.4,122.2,372.4,99.8z"/>
<path class="st0" d="M459.3,151.3l-24.6-80.1h-0.6c0.9,16.3,1.3,27.2,1.3,32.6v47.5h-19.4V49.1h29.5l24.2,78.1h0.4l25.6-78.1h29.5
	v102.1h-20.2v-48.3c0-2.3,0-4.9,0.1-7.9c0.1-3,0.4-10.9,0.9-23.8h-0.6l-26.3,80H459.3z"/>
<path class="st0" d="M551,151.3V49.1h21.7v102.1H551z"/>
<path class="st0" d="M688.9,151.3h-27.5L617,74h-0.6c0.9,13.6,1.3,23.4,1.3,29.2v48.1h-19.4V49.1h27.3l44.4,76.5h0.5
	c-0.7-13.3-1-22.7-1-28.2V49.1h19.5V151.3z"/>
<g>
	<circle class="st1" cx="95.7" cy="101.2" r="83.7"/>
	<g>
		<path class="st2" d="M107.5,49.6v61.8c0,5.1-1,9.6-3,13.4c-2,3.8-4.7,7-8,9.5c-3.3,2.6-7.2,4.5-11.5,5.8
			c-4.3,1.3-8.8,1.9-13.4,1.9c-5,0-9.6-0.8-13.9-2.5c-4.2-1.7-7.9-4-11-7c-3.1-3-5.5-6.5-7.2-10.5c-1.7-4-2.6-8.4-2.6-13.2
			c0-5.5,1-10.2,2.9-14.3c1.9-4.1,4.5-7.5,7.7-10.3c3.2-2.8,6.8-4.8,10.8-6.2c4-1.4,8-2.1,12.2-2.1c2.5,0,4.6,0.2,6.2,0.5
			c1.6,0.3,2.9,0.7,3.9,1.1v19.2c-0.8-0.4-1.9-0.8-3.2-1.2c-1.4-0.4-3.2-0.6-5.5-0.6c-2,0-3.9,0.3-5.6,1c-1.7,0.7-3.2,1.7-4.5,2.9
			c-1.3,1.3-2.3,2.7-3,4.5c-0.7,1.7-1.1,3.6-1.1,5.7c0,2.1,0.4,4,1.1,5.7c0.7,1.7,1.8,3.2,3,4.5c1.3,1.3,2.8,2.2,4.5,2.9
			c1.7,0.7,3.6,1,5.6,1c4.9,0,8.6-1.6,11-4.7c2.4-3.1,3.6-7.1,3.6-12.1V49.6H107.5z"/>
	</g>
	<g>
		<path class="st3" d="M105.6,52v56.7c0,4.9,1.2,9,3.6,12.1c2.4,3.1,6.1,4.7,11,4.7c2,0,3.8-0.3,5.6-1c1.7-0.7,3.2-1.7,4.5-2.9
			c1.3-1.3,2.3-2.7,3-4.5c0.7-1.7,1.1-3.6,1.1-5.7c0-2.1-0.4-4-1.1-5.7c-0.7-1.7-1.8-3.2-3-4.5c-1.3-1.3-2.8-2.2-4.5-2.9
			c-1.7-0.7-3.6-1-5.6-1c-2.3,0-4.1,0.2-5.5,0.6c-1.4,0.4-2.5,0.8-3.2,1.2V79.7c1-0.4,2.2-0.8,3.9-1.1c1.6-0.3,3.7-0.5,6.2-0.5
			c4.2,0,8.2,0.7,12.2,2.1c4,1.4,7.6,3.5,10.8,6.2c3.2,2.8,5.8,6.2,7.7,10.3c1.9,4.1,2.9,8.9,2.9,14.3c0,4.8-0.9,9.1-2.6,13.2
			c-1.7,4-4.1,7.5-7.2,10.5c-3.1,3-6.7,5.3-11,7c-4.2,1.7-8.9,2.5-13.9,2.5c-4.6,0-9-0.6-13.4-1.9c-4.3-1.3-8.2-3.2-11.5-5.8
			c-3.3-2.6-6-5.7-8-9.5c-2-3.8-3-8.3-3-13.4V52H105.6z"/>
	</g>
	<g>
		<path class="st2" d="M106.4,49.6v56.7c0,4.9,1.2,9,3.6,12.1c2.4,3.1,6.1,4.7,11,4.7c2,0,3.8-0.3,5.6-1c1.7-0.7,3.2-1.7,4.5-2.9
			c1.3-1.3,2.3-2.7,3-4.5c0.7-1.7,1.1-3.6,1.1-5.7c0-2.1-0.4-4-1.1-5.7c-0.7-1.7-1.8-3.2-3-4.5c-1.3-1.3-2.8-2.2-4.5-2.9
			c-1.7-0.7-3.6-1-5.6-1c-2.3,0-4.1,0.2-5.5,0.6c-1.4,0.4-2.5,0.8-3.2,1.2V77.3c1-0.4,2.2-0.8,3.9-1.1c1.6-0.3,3.7-0.5,6.2-0.5
			c4.2,0,8.2,0.7,12.2,2.1c4,1.4,7.6,3.5,10.8,6.2c3.2,2.8,5.8,6.2,7.7,10.3c1.9,4.1,2.9,8.9,2.9,14.3c0,4.8-0.9,9.1-2.6,13.2
			c-1.7,4-4.1,7.5-7.2,10.5c-3.1,3-6.7,5.3-11,7c-4.2,1.7-8.9,2.5-13.9,2.5c-4.6,0-9-0.6-13.4-1.9c-4.3-1.3-8.2-3.2-11.5-5.8
			c-3.3-2.6-6-5.7-8-9.5c-2-3.8-3-8.3-3-13.4V49.6H106.4z"/>
	</g>
</g>
</svg>
